<svg xmlns="http://www.w3.org/2000/svg" data-name="Layer 1" viewBox="0 0 100 125" x="0px" y="0px"><path d="M19.56,89.92H79.91a4.5,4.5,0,0,0,4.5-4.5V71a4.5,4.5,0,0,0-4.5-4.5h-.52V57.65a29.7,29.7,0,0,0-22.9-28.87,11.49,11.49,0,1,0-13.51,0,29.7,29.7,0,0,0-22.9,28.87v8.89h-.52a4.5,4.5,0,0,0-4.5,4.5V85.42A4.5,4.5,0,0,0,19.56,89.92Zm21.68-70.4A8.49,8.49,0,1,1,49.74,28,8.5,8.5,0,0,1,41.25,19.51ZM23.08,57.65a26.65,26.65,0,1,1,53.31,0v8.89H23.08ZM18.06,71a1.5,1.5,0,0,1,1.5-1.5H79.91a1.5,1.5,0,0,1,1.5,1.5V85.42a1.5,1.5,0,0,1-1.5,1.5H19.56a1.5,1.5,0,0,1-1.5-1.5Z"/><path d="M24.39,83.42a1.5,1.5,0,0,0,1.5-1.5V74.55a1.5,1.5,0,0,0-3,0v7.37A1.5,1.5,0,0,0,24.39,83.42Z"/><path d="M32.91,83.42a1.5,1.5,0,0,0,1.5-1.5V74.55a1.5,1.5,0,1,0-3,0v7.37A1.5,1.5,0,0,0,32.91,83.42Z"/><path d="M41.43,83.42a1.5,1.5,0,0,0,1.5-1.5V74.55a1.5,1.5,0,0,0-3,0v7.37A1.5,1.5,0,0,0,41.43,83.42Z"/><path d="M50,83.42a1.5,1.5,0,0,0,1.5-1.5V74.55a1.5,1.5,0,0,0-3,0v7.37A1.5,1.5,0,0,0,50,83.42Z"/><path d="M58.47,83.42a1.5,1.5,0,0,0,1.5-1.5V74.55a1.5,1.5,0,0,0-3,0v7.37A1.5,1.5,0,0,0,58.47,83.42Z"/><path d="M67,83.42a1.5,1.5,0,0,0,1.5-1.5V74.55a1.5,1.5,0,0,0-3,0v7.37A1.5,1.5,0,0,0,67,83.42Z"/><path d="M75.51,83.42a1.5,1.5,0,0,0,1.5-1.5V74.55a1.5,1.5,0,0,0-3,0v7.37A1.5,1.5,0,0,0,75.51,83.42Z"/><path d="M48.39,35.48A15.23,15.23,0,0,0,33.18,50.69a1.5,1.5,0,0,0,3,0A12.22,12.22,0,0,1,48.39,38.48a1.5,1.5,0,0,0,0-3Z"/></svg>