<svg xmlns="http://www.w3.org/2000/svg" data-name="Layer 1" viewBox="0 0 100 125" x="0px" y="0px"><path d="M27,86.67H72.82a6.51,6.51,0,0,0,6.5-6.5V51.1a6.47,6.47,0,0,0-3.63-5.82,9.26,9.26,0,0,1-5.18-8.34v-15a6.48,6.48,0,0,0-5-6.32l-4.48-1.08A1.5,1.5,0,0,0,59.2,16l0,18.06A3.57,3.57,0,0,1,58,36.73c-3.76,3.42-8.1,4.41-11.9,2.73a9.33,9.33,0,0,1-5.55-8.52V16a1.5,1.5,0,0,0-1.85-1.5l-4.48,1.08a6.48,6.48,0,0,0-5,6.32v15a9.26,9.26,0,0,1-5.18,8.34,6.47,6.47,0,0,0-3.63,5.82V80.17A6.51,6.51,0,0,0,27,86.67Zm-3.5-8.2h.93a1.5,1.5,0,0,0,0-3h-.93V51.1a3.49,3.49,0,0,1,2-3.14,12.24,12.24,0,0,0,6.85-11v-15A3.49,3.49,0,0,1,35,18.54l2.61-.63v13A12.33,12.33,0,0,0,44.93,42.2c4.86,2.15,10.52.94,15.13-3.25a6.58,6.58,0,0,0,2.17-4.85V17.91l2.61.63a3.49,3.49,0,0,1,2.68,3.4v15a12.24,12.24,0,0,0,6.85,11,3.49,3.49,0,0,1,2,3.14V75.56a1.49,1.49,0,0,0,0,2.82v1.79a3.5,3.5,0,0,1-3.5,3.5H27a3.5,3.5,0,0,1-3.5-3.5Z"/><path d="M69.06,78.47H71a1.5,1.5,0,0,0,0-3H69.06a1.5,1.5,0,0,0,0,3Z"/><path d="M38,78.47h1.94a1.5,1.5,0,0,0,0-3H38a1.5,1.5,0,0,0,0,3Z"/><path d="M30.24,78.47h1.94a1.5,1.5,0,0,0,0-3H30.24a1.5,1.5,0,0,0,0,3Z"/><path d="M45.77,78.47h1.94a1.5,1.5,0,1,0,0-3H45.77a1.5,1.5,0,0,0,0,3Z"/><path d="M53.53,78.47h1.94a1.5,1.5,0,0,0,0-3H53.53a1.5,1.5,0,1,0,0,3Z"/><path d="M61.3,78.47h1.94a1.5,1.5,0,0,0,0-3H61.3a1.5,1.5,0,1,0,0,3Z"/></svg>