<svg xmlns:x="http://ns.adobe.com/Extensibility/1.0/" xmlns:i="http://ns.adobe.com/AdobeIllustrator/10.0/" xmlns:graph="http://ns.adobe.com/Graphs/1.0/" xmlns="http://www.w3.org/2000/svg" xmlns:xlink="http://www.w3.org/1999/xlink" version="1.1" x="0px" y="0px" viewBox="0 0 32 40" style="enable-background:new 0 0 32 32;" xml:space="preserve"><metadata><sfw xmlns="http://ns.adobe.com/SaveForWeb/1.0/"><slices/><sliceSourceBounds height="16392" width="16538" bottomLeftOrigin="true" y="-8501" x="-7891"/></sfw></metadata><g><g><rect x="7" y="2" width="2" height="5"/></g><g><rect x="17" y="2" width="2" height="5"/></g><g><rect x="12" width="2" height="7"/></g><g><path d="M13,28C5.832,28,0,22.168,0,15v-5h26v5C26,22.168,20.168,28,13,28z M2,12v3c0,6.065,4.935,11,11,11s11-4.935,11-11v-3H2z"/></g><g><path d="M27,20v-2c1.654,0,3-1.346,3-3s-1.346-3-3-3h-2v-2h2c2.757,0,5,2.243,5,5S29.757,20,27,20z"/></g><g><rect x="24.316" y="18" width="2.684" height="2"/></g><g><path d="M24,32H3c-1.654,0-3-1.346-3-3v-3h27v3C27,30.654,25.654,32,24,32z M2,28v1c0,0.552,0.448,1,1,1h21c0.552,0,1-0.448,1-1    v-1H2z"/></g></g></svg>