<svg xmlns="http://www.w3.org/2000/svg" xmlns:xlink="http://www.w3.org/1999/xlink" version="1.1" x="0px" y="0px" viewBox="0 0 100 125" enable-background="new 0 0 100 100" xml:space="preserve"><path d="M50.948,50.147c-7.72,0-14,6.28-14,14s6.28,14,14,14s14-6.28,14-14S58.667,50.147,50.948,50.147z M50.948,76.147  c-6.617,0-12-5.383-12-12s5.383-12,12-12s12,5.383,12,12S57.564,76.147,50.948,76.147z"/><path d="M73.399,33.35c0.176-1.387,0.178-3.674-1.231-5.537c-1.226-1.622-3.216-2.544-5.925-2.749  c0.602-2.147,0.31-4.315-0.848-5.899c-1.296-1.773-3.534-2.64-6.368-2.476c-0.264-1.079-0.775-1.928-1.527-2.533  c-0.646-0.52-1.457-0.827-2.348-0.899c0.285-1.352,2.251-2.471,2.272-2.482c0.34-0.185,0.543-0.548,0.521-0.935  c-0.021-0.386-0.264-0.725-0.622-0.871c-0.205-0.083-5.057-2.012-9.164,0.291c-2.391,1.341-3.987,3.797-4.752,7.31  c-2.758-0.523-4.919-0.15-6.429,1.113c-0.493,0.412-0.898,0.924-1.235,1.513L29.916,5.031c-0.204-0.494-0.587-0.879-1.08-1.084  c-0.493-0.207-1.038-0.208-1.531-0.004l-1.071,0.441c-0.494,0.203-0.879,0.586-1.085,1.08s-0.207,1.037-0.004,1.531l7.354,17.874  c-1.925,0.545-3.053,1.627-3.702,2.598c-1.11,1.662-1.389,3.91-0.822,6.006c-0.713,0.306-1.214,1.014-1.214,1.838v1.159  c0,1.059,0.829,1.919,1.871,1.987l0.583,8.666c0.046,0.69,0.437,1.298,1.045,1.626l0.971,0.518  c0.251,3.704,1.548,22.848,2.375,35.991c0.039,0.625,0.363,1.184,0.889,1.533l0.525,0.358c0.165,2.842,0.275,4.497,0.312,5.048  l0.012,0.177c0.099,1.584,1.401,2.614,2.57,2.9l0.176,0.048c0.929,0.266,3.104,0.888,12.534,0.888  c9.673,0,11.458-0.481,12.893-0.868l0.271-0.073c2.031-0.528,2.405-1.807,2.503-2.861c0.007-0.072,0.025-0.264,0.322-5.126  l0.781-0.473c0.559-0.339,0.917-0.928,0.959-1.578c0.845-13.387,2.036-32.536,2.249-35.97l0.929-0.518  c0.595-0.331,0.978-0.934,1.022-1.613l0.583-8.675c1.042-0.068,1.871-0.928,1.871-1.987V35.31  C75.006,34.342,74.315,33.533,73.399,33.35z M28.761,36.469V35.31h0.59c0.001,0,0.001,0,0.002,0h42.843c0.001,0,0.002,0,0.003,0  c0.001,0,0.002,0,0.003,0h0.804l0.001,1.159H28.761z M26.995,6.233l1.072-0.441l6.724,16.342c-0.107,0.733-0.157,1.528-0.14,2.394  c-0.044,0.002-0.08,0.01-0.123,0.013L26.995,6.233z M30.46,28.577c0.957-1.433,2.757-2.141,5.201-2.056  c0.282,0.012,0.559-0.101,0.756-0.306c0.197-0.204,0.298-0.483,0.278-0.767c-0.224-3.077,0.304-5.173,1.567-6.23  c1.172-0.981,3.086-1.143,5.688-0.478c0.272,0.069,0.561,0.021,0.795-0.132c0.235-0.154,0.395-0.399,0.439-0.676  c0.561-3.433,1.888-5.762,3.944-6.921c1.892-1.065,4.082-0.963,5.593-0.687c-1.013,0.978-1.99,2.45-1.461,4.231  c0.138,0.466,0.583,0.766,1.074,0.708c0.537-0.062,1.308-0.035,1.912,0.451c0.534,0.429,0.855,1.155,0.956,2.156  c0.027,0.269,0.162,0.516,0.374,0.684s0.482,0.241,0.751,0.208c2.564-0.337,4.45,0.211,5.453,1.583  c0.962,1.315,1.015,3.376,0.137,5.251c-0.146,0.312-0.122,0.677,0.065,0.966c0.187,0.29,0.483,0.444,0.853,0.458  c2.802-0.032,4.701,0.634,5.731,1.989c1.069,1.405,0.974,3.287,0.819,4.3H30.004C29.532,31.88,29.506,30.006,30.46,28.577z   M70.557,46.996l-0.93,0.518c-0.597,0.333-0.979,0.937-1.022,1.617c-0.213,3.439-1.404,22.587-2.249,35.966l-0.78,0.473  c-0.562,0.34-0.921,0.936-0.961,1.595c-0.254,4.171-0.308,4.956-0.316,5.054c-0.054,0.58-0.082,0.871-1.016,1.114l-0.289,0.077  c-1.25,0.337-2.963,0.799-12.372,0.799c-9.149,0-11.208-0.589-11.984-0.811c-0.097-0.028-0.179-0.051-0.251-0.068  c-0.258-0.063-1.006-0.398-1.049-1.083l-0.012-0.185c-0.037-0.549-0.146-2.198-0.31-5.03c-0.037-0.63-0.369-1.213-0.891-1.56  l-0.524-0.342c-0.827-13.148-2.124-32.296-2.375-36.002c-0.047-0.685-0.437-1.289-1.044-1.617l-0.971-0.524l-0.573-8.519H71.13  L70.557,46.996z"/></svg>