<svg xmlns="http://www.w3.org/2000/svg" data-name="Layer 1" viewBox="0 0 100 125" x="0px" y="0px"><path d="M89.22,48.91s0-.05,0-.08l-.08,0L68.84,28.53a9.44,9.44,0,0,0-6.72-2.78H58.66a1.48,1.48,0,0,0-.49.09h0a22.91,22.91,0,0,1-16.41,0h0a1.48,1.48,0,0,0-.48-.09H37.73A9.44,9.44,0,0,0,31,28.53L9.08,50.46a5.51,5.51,0,0,0,0,7.78L12,61.18a5.51,5.51,0,0,0,7.78,0l1.59-1.59.06,0,0-.06L32.92,48.05V71.63a5.51,5.51,0,0,0,5.5,5.5h23a5.51,5.51,0,0,0,5.5-5.5V69.06s0,0,0,0,0,0,0,0V48L80.06,61.17a5.5,5.5,0,0,0,7.78,0l2.93-2.93a5.5,5.5,0,0,0,0-7.78ZM56.82,29.42a7.23,7.23,0,0,1-13.8,0A25.5,25.5,0,0,0,56.82,29.42ZM17.67,59.05a2.5,2.5,0,0,1-3.54,0l-2.93-2.93a2.5,2.5,0,0,1,0-3.54l.58-.58,6.47,6.47ZM63.93,71.63a2.5,2.5,0,0,1-2.5,2.5h-23a2.5,2.5,0,0,1-2.5-2.5V70.52h28ZM79.51,56.38,68.2,45.07a2.5,2.5,0,0,0-4.27,1.77V67.52h-28V46.85a2.5,2.5,0,0,0-4.27-1.77L20.37,56.36,13.9,49.89,33.14,30.65a6.46,6.46,0,0,1,4.6-1.9h2.09a10.22,10.22,0,0,0,20.21,0h2.08a6.46,6.46,0,0,1,4.6,1.9L86,49.91Zm9.14-.26-2.93,2.93a2.56,2.56,0,0,1-3.54,0l-.55-.55L88.1,52l.55.55a2.5,2.5,0,0,1,0,3.54Z"/></svg>