<svg xmlns="http://www.w3.org/2000/svg" data-name="Layer 1" viewBox="0 0 100 125" x="0px" y="0px"><path d="M20.07,51.86a3.58,3.58,0,0,0,4.95,0L26.9,50a.5.5,0,0,1,.85.35V83.69a3.5,3.5,0,0,0,3.5,3.5h39a3.5,3.5,0,0,0,3.5-3.5V50.33a.5.5,0,0,1,.85-.35l1.88,1.88a3.58,3.58,0,0,0,4.95,0L91.9,41.43a3.5,3.5,0,0,0,0-4.95l-18-18a3.48,3.48,0,0,0-2.47-1H66.28a3.48,3.48,0,0,0-1.25.28,60.76,60.76,0,0,1-28.51,0,3.48,3.48,0,0,0-1.25-.28H30.08a3.48,3.48,0,0,0-2.47,1l-18,18a3.5,3.5,0,0,0,0,4.95Zm30.7-29.37a63.73,63.73,0,0,0,11.39-1,13.64,13.64,0,0,1-22.77,0A63.73,63.73,0,0,0,50.77,22.49Zm-39,16.11,18-18a.5.5,0,0,1,.35-.15H35l.47.11a.46.46,0,0,1,.15.17,16.66,16.66,0,0,0,30.37,0,.46.46,0,0,1,.14-.16l.47-.11h4.89a.5.5,0,0,1,.35.15l18,18a.5.5,0,0,1,0,.71L79.35,49.74a.5.5,0,0,1-.71,0l-1.88-1.88a3.5,3.5,0,0,0-6,2.47V78a1.49,1.49,0,0,0,0,2.82v2.9a.5.5,0,0,1-.5.5h-39a.5.5,0,0,1-.5-.5V80.8a1.49,1.49,0,0,0,0-2.82V50.33a3.5,3.5,0,0,0-6-2.48L22.9,49.74a.5.5,0,0,1-.71,0L11.77,39.31a.5.5,0,0,1,0-.71Z"/><path d="M54,80.89h2.16a1.5,1.5,0,0,0,0-3H54a1.5,1.5,0,0,0,0,3Z"/><path d="M62.65,80.89h2.16a1.5,1.5,0,0,0,0-3H62.65a1.5,1.5,0,0,0,0,3Z"/><path d="M45.37,80.89h2.16a1.5,1.5,0,0,0,0-3H45.37a1.5,1.5,0,0,0,0,3Z"/><path d="M36.73,80.89h2.16a1.5,1.5,0,1,0,0-3H36.73a1.5,1.5,0,0,0,0,3Z"/></svg>