<svg xmlns="http://www.w3.org/2000/svg" data-name="Layer 1" viewBox="0 0 100 125" x="0px" y="0px"><path d="M73.07,18.81a1.48,1.48,0,0,0-.11-.36l-.54-7.72a1.5,1.5,0,0,0-1.65-1.39L64.46,10A161.42,161.42,0,0,1,32,10l-6.31-.64a1.5,1.5,0,0,0-1.65,1.39l-5.4,76.86a1.5,1.5,0,0,0,1,1.51,46.86,46.86,0,0,0,16.91,3,57.69,57.69,0,0,0,6.2-.34,1.5,1.5,0,0,0,1.33-1.31L48.24,56l4.18,34.42a1.5,1.5,0,0,0,1.44,1.32,81.77,81.77,0,0,0,22.83-2.62,1.5,1.5,0,0,0,1.12-1.56L73,19.45A1.49,1.49,0,0,0,73.07,18.81ZM54.46,13.67c3.44-.13,6.88-.36,10.3-.7l4.77-.48.37,5.28a149.61,149.61,0,0,1-15.44,1.45ZM26.94,12.48l4.77.48a164.12,164.12,0,0,0,19.75.79v5.53a149.4,149.4,0,0,1-24.89-1.56ZM74.73,86.55A78.62,78.62,0,0,1,55.24,88.8L49.73,43.42a1.5,1.5,0,0,0-3,0L41.22,88.9a46.13,46.13,0,0,1-19.49-2.22l3.54-50.45a1.43,1.43,0,0,0,.24-.16l7.76-7.76a1.5,1.5,0,0,0-2.12-2.12l-5.57,5.57.77-11a152.52,152.52,0,0,0,22,1.62c1,0,2.06,0,3.09-.06v6a1.84,1.84,0,0,1-1.84,1.84H48.29a1.5,1.5,0,0,0,0,3h1.33a4.85,4.85,0,0,0,4.84-4.84V22.22a152.64,152.64,0,0,0,15.65-1.46l.8,11.46-6-6a1.5,1.5,0,0,0-2.12,2.12l7.76,7.76a1.46,1.46,0,0,0,.69.37Z"/><circle cx="48.37" cy="16.69" r="1.41"/></svg>