<svg xmlns="http://www.w3.org/2000/svg" data-name="Layer 1" viewBox="0 0 100 125" x="0px" y="0px"><path d="M84.69,43.7l-1.54-1.54a11.68,11.68,0,0,0-16.49,0l-9.3,9.2a1.5,1.5,0,0,0,2.11,2.13l9.31-9.2a8.68,8.68,0,0,1,12.26,0l1.54,1.54a8.68,8.68,0,0,1,0,12.26l-8.25,8.25H20V34.13A18.85,18.85,0,0,1,38.8,15.3h4.36A18.85,18.85,0,0,1,62,34.13v4.3a1.5,1.5,0,0,0,3,0v-4.3A21.86,21.86,0,0,0,43.16,12.3H38.8A21.86,21.86,0,0,0,17,34.13V66.34a4.5,4.5,0,0,0-4.4,4.49V85.2a4.5,4.5,0,0,0,4.5,4.5H77.41a4.5,4.5,0,0,0,4.5-4.5V70.83a4.5,4.5,0,0,0-3.48-4.37l6.26-6.26A11.68,11.68,0,0,0,84.69,43.7ZM78.91,70.83V85.2a1.5,1.5,0,0,1-1.5,1.5H17.06a1.5,1.5,0,0,1-1.5-1.5V70.83a1.5,1.5,0,0,1,1.5-1.5H77.41A1.5,1.5,0,0,1,78.91,70.83Z"/><path d="M21.89,72.83a1.5,1.5,0,0,0-1.5,1.5V81.7a1.5,1.5,0,0,0,3,0V74.33A1.5,1.5,0,0,0,21.89,72.83Z"/><path d="M30.41,72.83a1.5,1.5,0,0,0-1.5,1.5V81.7a1.5,1.5,0,0,0,3,0V74.33A1.5,1.5,0,0,0,30.41,72.83Z"/><path d="M38.93,72.83a1.5,1.5,0,0,0-1.5,1.5V81.7a1.5,1.5,0,0,0,3,0V74.33A1.5,1.5,0,0,0,38.93,72.83Z"/><path d="M47.45,72.83a1.5,1.5,0,0,0-1.5,1.5V81.7a1.5,1.5,0,0,0,3,0V74.33A1.5,1.5,0,0,0,47.45,72.83Z"/><path d="M56,72.83a1.5,1.5,0,0,0-1.5,1.5V81.7a1.5,1.5,0,0,0,3,0V74.33A1.5,1.5,0,0,0,56,72.83Z"/><path d="M64.49,72.83a1.5,1.5,0,0,0-1.5,1.5V81.7a1.5,1.5,0,0,0,3,0V74.33A1.5,1.5,0,0,0,64.49,72.83Z"/><path d="M73,72.83a1.5,1.5,0,0,0-1.5,1.5V81.7a1.5,1.5,0,0,0,3,0V74.33A1.5,1.5,0,0,0,73,72.83Z"/><path d="M24.74,37.22a1.5,1.5,0,0,0,3,0A12.7,12.7,0,0,1,40.43,24.53a1.5,1.5,0,0,0,0-3A15.71,15.71,0,0,0,24.74,37.22Z"/></svg>