<svg xmlns="http://www.w3.org/2000/svg" data-name="Layer 1" viewBox="0 0 100 125" x="0px" y="0px"><circle cx="50.11" cy="32.15" r="1.69"/><path d="M11.66,77.63l31.46,8h0a3.5,3.5,0,0,0,4.26-2.52l1.17-4.59a3.42,3.42,0,0,0-.92-3.33l2.48-9.65,2.52,9.79a3.5,3.5,0,0,0-.78,3.2L53,83.15a3.5,3.5,0,0,0,4.26,2.52h0l31.46-8a3.5,3.5,0,0,0,2.52-4.26l-1.17-4.6a3.5,3.5,0,0,0-2.85-2.59L79.38,35.71V26.12a2.49,2.49,0,0,0-2.87-2.47,179,179,0,0,1-52.83,0,2.49,2.49,0,0,0-2.87,2.47v9.59L13,66.23a3.5,3.5,0,0,0-2.67,2.54l-1.17,4.6A3.5,3.5,0,0,0,11.66,77.63Zm75-8.49a.51.51,0,0,1,.25.07.5.5,0,0,1,.23.31l1.17,4.6a.5.5,0,0,1-.36.61l-31.46,8a.5.5,0,0,1-.61-.36l-1.17-4.6a.5.5,0,0,1,.36-.61l31.46-8ZM57.09,28.48a182.26,182.26,0,0,0,19.29-1.77v7a179.35,179.35,0,0,1-19.29,1.81ZM23.83,26.71a182.07,182.07,0,0,0,30.27,1.86v7a179.11,179.11,0,0,1-30.27-1.9Zm-.15,10a182.21,182.21,0,0,0,26.43,1.94c1.33,0,2.66,0,4,0V46a2.5,2.5,0,0,1-2.5,2.5H50a1.5,1.5,0,0,0,0,3h1.59a5.51,5.51,0,0,0,5.5-5.5V38.48a182.34,182.34,0,0,0,19.44-1.8l7.71,30L55.38,74,51.56,59.18a1.5,1.5,0,0,0-2.91,0L44.84,74,16,66.61ZM12,74.12l1.17-4.59a.5.5,0,0,1,.48-.37l.07,0a1.49,1.49,0,0,0,.26,0L45.1,77.16a1.48,1.48,0,0,0,.41.18l.08.09a.5.5,0,0,1,.05.38l-1.17,4.6a.5.5,0,0,1-.61.36h0l-31.46-8A.5.5,0,0,1,12,74.12Z"/></svg>