<svg xmlns="http://www.w3.org/2000/svg" data-name="Layer 1" viewBox="0 0 100 125" x="0px" y="0px"><path d="M68.63,34a7.45,7.45,0,0,0-5.3-2.2H62.5c2.28-2.5,3.45-5,3.45-7.5a15.64,15.64,0,0,0-31.28,0c0,2.49,1.16,5,3.44,7.5h-.83A7.45,7.45,0,0,0,32,34L10.17,55.8a6.5,6.5,0,0,0,0,9.19l1.52,1.52a6.5,6.5,0,0,0,9.19,0L33.3,54.1V78.68a6.51,6.51,0,0,0,6.5,6.5h21a6.51,6.51,0,0,0,6.5-6.5V54.09L79.73,66.52a6.51,6.51,0,0,0,9.19,0L90.44,65a6.5,6.5,0,0,0,0-9.19Zm-31-9.7a12.64,12.64,0,0,1,25.28,0,6.41,6.41,0,0,1-.9,3.09,11.76,11.76,0,0,0-23.47,0A6.41,6.41,0,0,1,37.67,24.3Zm21.42,3.86c0,3.37-5.19,6.76-8.24,8.34l-.54.27-.58-.29c-3.05-1.59-8.19-5-8.19-8.32a8.78,8.78,0,0,1,17.55,0ZM88.32,62.88l-1.52,1.52a3.5,3.5,0,0,1-5,0L68.58,51.12a2.5,2.5,0,0,0-4.27,1.77V78.68a3.5,3.5,0,0,1-3.5,3.5h-21a3.5,3.5,0,0,1-3.5-3.5V52.89A2.5,2.5,0,0,0,32,51.13L18.76,64.39a3.5,3.5,0,0,1-4.95,0l-1.52-1.52a3.5,3.5,0,0,1,0-5L34.1,36.12a4.47,4.47,0,0,1,3.18-1.32h2.08V45.13a1.5,1.5,0,0,0,3,0V35.51a46.53,46.53,0,0,0,6.16,3.73c.57.29,1,.49,1.18.57a1.5,1.5,0,0,0,1.23,0c.18-.08.6-.27,1.16-.56a47.58,47.58,0,0,0,5.11-3V52.75a1.5,1.5,0,0,0,3,0v-18h3.14a4.47,4.47,0,0,1,3.18,1.32L88.32,57.93A3.5,3.5,0,0,1,88.32,62.88Z"/><path d="M59.76,64.07a2.39,2.39,0,0,1-2.39-2.39,1.5,1.5,0,0,0-1.5-1.5H44.75a1.5,1.5,0,0,0-1.5,1.5,2.39,2.39,0,0,1-2.39,2.39,1.5,1.5,0,0,0-1.5,1.5v3.61a5.51,5.51,0,0,0,5.5,5.5h10.9a5.51,5.51,0,0,0,5.5-5.5V65.57A1.5,1.5,0,0,0,59.76,64.07Zm-1.5,5.11a2.5,2.5,0,0,1-2.5,2.5H44.86a2.5,2.5,0,0,1-2.5-2.5V66.86A5.41,5.41,0,0,0,46,63.19h8.55a5.41,5.41,0,0,0,3.67,3.67Z"/></svg>