<svg xmlns="http://www.w3.org/2000/svg" data-name="Layer 1" viewBox="0 0 100 125" x="0px" y="0px"><path d="M68.84,29.53a9.54,9.54,0,0,0-3.31-2.14,10,10,0,0,0,1.89-5.32c0-7.38-6.7-12-17.49-12s-17.49,4.59-17.49,12a10,10,0,0,0,1.89,5.32A9.55,9.55,0,0,0,31,29.53L7,53.58a2.5,2.5,0,0,0,0,3.54l7.18,7.18a2.56,2.56,0,0,0,3.53,0L32.92,49.05V84.63a2.5,2.5,0,0,0,2.5,2.5h29a2.5,2.5,0,0,0,2.5-2.5V71.06s0-.05,0-.08V49L82.18,64.3a2.5,2.5,0,0,0,3.53,0l7.18-7.18a2.5,2.5,0,0,0,0-3.54Zm-4.42-7.46c0,2.9-3.7,7-8.46,10.82,3.19-5.52,4.5-10.51,3.8-14.68a11.34,11.34,0,0,0-1.33-3.76C61.63,15.65,64.42,17.89,64.42,22.07Zm-23-7.62a11.34,11.34,0,0,0-1.33,3.76c-.7,4.17.61,9.17,3.8,14.68-4.76-3.81-8.46-7.92-8.46-10.82C35.44,17.89,38.23,15.65,41.44,14.45Zm7,69.68H35.92V71.64l6.16-6.16A1.5,1.5,0,0,0,40,63.36l-4,4V47.85a2.5,2.5,0,0,0-4.27-1.77L15.91,61.82,9.44,55.35l23.7-23.7a6.54,6.54,0,0,1,3.15-1.72c3.67,4.18,9.08,7.92,12.14,9.87ZM43.07,18.71a7.84,7.84,0,0,1,3.46-5.41,29.48,29.48,0,0,1,6.81,0,7.84,7.84,0,0,1,3.46,5.41c.56,3.31-.24,9-6.86,17.82C43.31,27.75,42.51,22,43.07,18.71ZM84,61.82,68.2,46.07a2.5,2.5,0,0,0-4.27,1.77V67.39l-4-4a1.5,1.5,0,0,0-2.12,2.12l6.16,6.15v12.5H51.43V39.81c3.06-2,8.47-5.69,12.14-9.87a6.53,6.53,0,0,1,3.15,1.72l23.71,23.7Z"/><circle cx="16.3" cy="55.28" r="1.69"/><circle cx="83.92" cy="55.28" r="1.69"/></svg>